<svg xmlns="http://www.w3.org/2000/svg" width="43" height="43">
  <defs>
    <linearGradient
      id="shudan-w-ambient"
      x1="0"
      x2="0"
      y1="40.65"
      y2="30.65"
      gradientUnits="userSpaceOnUse"
    >
      <stop offset="0" stop-color="#f6f7ff" stop-opacity=".6" />
      <stop offset="1" stop-color="#f6f7ff" stop-opacity="0" />
    </linearGradient>

    <linearGradient
      id="shudan-w-base"
      x1="0"
      x2="0"
      y1="43"
      y2="0"
      gradientUnits="userSpaceOnUse"
    >
      <stop offset="0" stop-color="#d6d8ed" />
      <stop offset="1" stop-color="#f6f7ff" />
    </linearGradient>

    <filter id="shudan-w-wavy">
      <feTurbulence
        type="fractalNoise"
        baseFrequency="0.08 0.02"
        numOctaves="2"
        seed="15"
        result="noise"
      />
      <feDisplacementMap
        in="SourceGraphic"
        in2="noise"
        scale="3"
        xChannelSelector="R"
        yChannelSelector="G"
      />
    </filter>

    <radialGradient id="shudan-w-specular" cx="32%" cy="28%" r="18%">
      <stop offset="0" stop-color="#fff" />
      <stop offset=".15" stop-color="#fff" stop-opacity=".6" />
      <stop offset=".35" stop-color="#fff" stop-opacity=".25" />
      <stop offset="1" stop-color="#fff" stop-opacity="0" />
    </radialGradient>

    <mask id="shudan-w-stone-mask">
      <circle cx="21.5" cy="21.5" r="20" fill="#888" />
      <circle cx="21.5" cy="21.5" r="18.5" fill="#fff" />
    </mask>
  </defs>

  <circle
    cx="21.5"
    cy="21.5"
    r="20.5"
    fill="url(#shudan-w-base)"
    stroke="#c3c3c3"
  />
  <circle cx="21.5" cy="21.5" r="18.5" fill="url(#shudan-w-ambient)" />

  <g
    mask="url(#shudan-w-stone-mask)"
    filter="url(#shudan-w-wavy)"
    stroke="#c6bda7"
    stroke-width="2"
    fill="none"
    opacity=".4"
  >
    <path d="M0 0h43v43H0z" />
    <path
      d="m 1.324,32.87 c 0,0 2.363,1.361 5.347,2.326 7.343,2.373 22.915,2.014 27.722,-0.008 4.507,-1.895 7.33,-3.361 7.33,-3.361"
    />
    <path
      d="m 1.084,28.41 c 0,0 1.761,1.731 4.826,2.4 7.398,1.616 25.49,1.16 30.253,-0.23 4.694,-1.371 6.623,-2.655 6.623,-2.655"
    />
    <path
      d="m 0.5,23.603 c 0,0 1.8,1.575 4.826,2.4 6.273,2.094545 26.148,1.243243 30.253,-0.23 4.73,-1.114 6.623,-2.654 6.623,-2.654"
    />
    <path
      d="m 0.5,18.697 c 0,0 1.79,1.996 4.863,2.624 6.995988,2.032072 26.364476,1.523144 30.254,-0.23 4.68,-1.415 6.585,-2.878 6.585,-2.878"
    />
    <path
      d="m 0.65704446,11.428147 c 0,0 2.08900004,3.103 4.92200004,4.45 5.2465435,2.895279 25.7615695,2.508151 30.1409995,0.587 3.397229,-1.070229 6.247,-4.54 6.247,-4.54"
    />
    <path
      d="m 5.9138028,4.8802726 c 0,0 1.157329,4.3369004 3.734329,6.1259004 2.2488832,1.520938 5.5836422,2.297263 10.4730002,2.49848 6.276621,0.258309 13.366074,-1.23989 15.271,-3.31148 3.409,-2.858 2.230281,-6.4122725 2.230281,-6.4122725"
    />
    <path
      d="m 16.982117,-0.46914282 c 0.0045,-0.001915 -4.95961,1.65647262 -5.002238,5.29096532 -0.249868,2.89205 4.239925,4.0065656 8.579393,4.0335966 4.63336,0.02886 9.253624,-0.7502807 10.730736,-3.3368433 1.989611,-3.9888009 -3.030225,-5.64634196 -3.030225,-5.64634196"
    />
  </g>

  <g mask="url(#shudan-w-stone-mask)" fill="url(#shudan-w-specular)">
    <ellipse cx="20" cy="9" rx="24" ry="12" transform="rotate(-40 20 9)" />
    <ellipse
      cx="41"
      cy="31"
      rx="24"
      ry="12"
      transform="rotate(-40 41 31)"
      opacity=".6"
    />
  </g>
</svg>
